#!OML:ASF F:\twosubjects\two\wednesday\Session 1\rory1.ASF
:FULLY-SPECIFIED
:DEGREES
422
root 8.71672 17.1746 5.10346 534.435 -39.7798 -174
lowerback 16.271 4.5388 -9.84081
upperback 4.33396 3.51761 -3.46415
thorax -4.85062 1.51786 1.14393
lowerneck -1.33783 -19.2016 -18.1999
upperneck 1.77925 -30.0115 32.1675
head 8.98722 -14.9216 9.14765
rclavicle -3.73715e-014 -6.36111e-015
rhumerus 39.3042 -51.6031 -69.9293
rradius 14.8618
rwrist -25.093
rhand 2.6587 15.0517
rfingers 7.12502
rthumb 28.1344 -12.8577
lclavicle -3.73715e-014 -6.36111e-015
lhumerus -34.4827 1.45643 50.731
lradius 31.1417
lwrist 2.76299
lhand -25.1356 14.4545
lfingers 7.12502
lthumb 1.38065 44.4297
rfemur -30.2943 4.25072 7.23429
rtibia 57.3627
rfoot -5.77449 -18.3736
rtoes 11.3767
lfemur -33.2303 3.12546 -16.7366
ltibia 55.0158
lfoot -19.016 3.00067
ltoes 0.783815
423
root 8.47769 17.1901 5.19301 534.023 -39.3044 -173.269
lowerback 16.2614 4.16003 -9.25088
upperback 4.38713 3.16665 -3.17937
thorax -4.74087 1.34977 1.20205
lowerneck -1.76741 -19.2149 -17.8718
upperneck 3.40222 -30.4137 31.556
head 9.50941 -14.9714 8.76886
rclavicle -1.74931e-014 -7.95139e-015
rhumerus 39.8633 -51.6483 -71.1814
rradius 14.9337
rwrist -25.6693
rhand 1.14808 15.7889
rfingers 7.12502
rthumb 26.6896 -12.3492
lclavicle -1.74931e-014 -7.95139e-015
lhumerus -34.0235 1.6165 50.4424
lradius 31.0588
lwrist 2.05059
lhand -25.5401 14.4974
lfingers 7.12502
lthumb 0.989927 44.4748
rfemur -30.2685 1.79187 9.29259
rtibia 60.4502
rfoot -8.30787 -20.7203
rtoes 13.7938
lfemur -32.8732 2.79795 -16.8732
ltibia 55.134
lfoot -19.6881 3.10864
ltoes 1.56786
424
root 8.23925 17.2056 5.2869 534.004 -38.188 -172.838
lowerback 15.9345 4.03824 -8.81719
upperback 4.4226 3.14355 -3.04602
thorax -4.51078 1.33501 1.12722
lowerneck -2.14528 -19.228 -17.2842
upperneck 4.5458 -30.7115 31.0292
head 9.81698 -15.0097 8.41833
rclavicle 1.59823e-013 2.06736e-014
rhumerus 42.4281 -53.3116 -74.8085
rradius 14.4698
rwrist -23.7522
rhand 1.27313 17.2634
rfingers 7.12502
rthumb 26.8092 -10.8563
lclavicle 1.59823e-013 2.06736e-014
lhumerus -33.404 1.48907 50.2121
lradius 31.0575
lwrist 1.6937
lhand -26.4191 15.0539
lfingers 7.12502
lthumb 0.140988 45.0336
rfemur -30.7412 -0.0629231 11.0211
rtibia 63.4569
rfoot -10.5647 -22.5833
rtoes 17.7478
lfemur -32.6523 2.92871 -17.2362
ltibia 55.1408
lfoot -20.5275 3.64568
ltoes 2.39728
425
root 8.00593 17.2343 5.37134 533.918 -36.8172 -172.509
lowerback 15.7591 4.09261 -8.48973
upperback 4.3655 3.29533 -3.00609
thorax -4.47574 1.41182 0.964052
lowerneck -1.97018 -19.1443 -16.5172
upperneck 4.93274 -30.7908 30.7877
head 9.74883 -15.0515 8.25843
rclavicle 1.11319e-013 2.38542e-014
rhumerus 43.5634 -54.3603 -77.0246
rradius 14.2003
rwrist -22.7482
rhand 1.56529 17.666
rfingers 7.12502
rthumb 27.0888 -10.4106
lclavicle 1.11319e-013 2.38542e-014
lhumerus -32.8084 1.51405 49.7183
lradius 31.1449
lwrist 1.41714
lhand -27.4068 16.0663
lfingers 7.12502
lthumb -0.812967 46.0445
rfemur -30.9946 -1.85605 12.7779
rtibia 66.3039
rfoot -12.0344 -24.2335
rtoes 20.0249
lfemur -32.1161 3.41255 -17.6123
ltibia 54.9605
lfoot -21.3657 4.23785
ltoes 4.39189
426
root 7.76892 17.2668 5.4471 533.912 -35.6544 -172.434
lowerback 15.6946 4.11871 -8.36238
upperback 4.27625 3.35301 -3.03546
thorax -4.53271 1.44437 0.850912
lowerneck -1.67033 -19.0073 -15.731
upperneck 5.29031 -30.812 30.5674
head 9.63581 -15.0828 8.13602
rclavicle 5.96354e-014 -4.13472e-014
rhumerus 44.2483 -55.1378 -78.8141
rradius 14.1138
rwrist -21.9389
rhand 1.75822 17.3477
rfingers 7.12502
rthumb 27.2733 -10.7
lclavicle 5.96354e-014 -4.13472e-014
lhumerus -32.3553 1.33684 49.2415
lradius 31.3535
lwrist 1.71808
lhand -28.8485 18.2454
lfingers 7.12502
lthumb -2.20535 48.2138
rfemur -30.8684 -3.97462 14.2721
rtibia 68.9814
rfoot -13.9488 -25.3436
rtoes 23.2181
lfemur -31.3964 3.74748 -18.2482
ltibia 54.593
lfoot -22.0263 5.14231
ltoes 5.19178
427
root 7.52503 17.3117 5.51308 533.929 -34.8943 -172.462
lowerback 15.5961 3.97955 -8.47253
upperback 4.26186 3.17308 -2.9509
thorax -4.49132 1.3583 1.0432
lowerneck -1.65597 -18.8495 -15.1835
upperneck 6.04969 -30.8171 30.1298
head 9.69972 -15.0505 7.9473
rclavicle 3.18055e-014 -4.6118e-014
rhumerus 44.9723 -55.6473 -80.4165
rradius 14.0132
rwrist -20.6445
rhand 5.12467 17.2109
rfingers 7.12502
rthumb 30.4889 -10.2867
lclavicle 3.18055e-014 -4.6118e-014
lhumerus -32.2505 0.748463 49.0224
lradius 31.7527
lwrist 2.32914
lhand -26.5868 16.361
lfingers 7.12502
lthumb -0.0209798 46.3407
rfemur -30.3997 -6.3636 15.4814
rtibia 71.3908
rfoot -15.8836 -25.9205
rtoes 27.2096
lfemur -30.5642 3.64803 -19.0491
ltibia 54.056
lfoot -22.6882 6.48684
ltoes 3.09089
428
root 7.30278 17.3631 5.56392 534.339 -32.8514 -172.691
lowerback 14.871 4.27122 -9.27493
upperback 4.13272 3.54206 -2.73656
thorax -4.32624 1.54941 1.67002
lowerneck -1.5221 -18.6466 -14.8682
upperneck 6.81707 -30.6795 29.5346
head 9.71583 -14.9602 7.78681
rclavicle -7.95139e-015 -7.4743e-014
rhumerus 40.5477 -52.9539 -75.9557
rradius 14.6365
rwrist -23.9495
rhand 7.65999 16.2419
rfingers 7.12502
rthumb 32.9037 -10.7785
lclavicle -7.95139e-015 -7.4743e-014
lhumerus -32.3613 0.721288 48.756
lradius 32.0781
lwrist 1.94272
lhand -26.2683 16.6093
lfingers 7.12502
lthumb 0.286568 46.5888
rfemur -30.4778 -7.54372 16.7328
rtibia 73.6249
rfoot -14.9791 -26.3198
rtoes 26.3416
lfemur -29.8907 4.74214 -19.7787
ltibia 53.4233
lfoot -23.3432 7.64968
ltoes 1.90562
429
root 7.05382 17.3921 5.63855 535.072 -31.3536 -172.83
lowerback 13.9759 4.23101 -9.28255
upperback 3.93112 3.61973 -2.75203
thorax -4.06278 1.59955 1.68388
lowerneck -1.29676 -18.3509 -15.0053
upperneck 7.36163 -30.557 29.5949
head 9.86982 -14.9118 7.89425
rclavicle -3.18055e-015 9.85972e-014
rhumerus 35.1788 -48.6896 -70.304
rradius 15.6953
rwrist -29.9143
rhand 6.04546 15.3988
rfingers 7.12502
rthumb 31.3666 -11.9321
lclavicle -3.18055e-015 9.85972e-014
lhumerus -32.3412 0.955439 48.3637
lradius 32.3847
lwrist 1.4006
lhand -26.9678 17.2213
lfingers 7.12502
lthumb -0.38897 47.2007
rfemur -30.9886 -9.50805 17.7703
rtibia 75.7754
rfoot -13.2086 -25.5867
rtoes 23.0078
lfemur -29.8391 5.07921 -20.6512
ltibia 52.8302
lfoot -23.8307 8.5525
ltoes 4.18225
430
root 6.7984 17.4062 5.71545 535.781 -29.7352 -172.924
lowerback 13.259 4.24385 -9.01373
upperback 3.7 3.76356 -2.91231
thorax -3.90592 1.68098 1.3724
lowerneck -0.50552 -18.4057 -15.068
upperneck 7.26349 -30.8308 29.7826
head 9.8106 -15.1358 7.97956
rclavicle -4.92986e-014 -1.90833e-014
rhumerus 34.0173 -47.573 -69.5823
rradius 15.9381
rwrist -31.6538
rhand 5.05448 15.5642
rfingers 7.12502
rthumb 30.4219 -11.9459
lclavicle -4.92986e-014 -1.90833e-014
lhumerus -32.321 0.551349 48.0636
lradius 32.874
lwrist 1.78304
lhand -26.9586 16.4063
lfingers 7.12502
lthumb -0.380146 46.3857
rfemur -31.4506 -11.2983 18.7546
rtibia 77.6716
rfoot -12.5002 -24.8249
rtoes 17.4329
lfemur -29.7823 5.45192 -21.4897
ltibia 52.1984
lfoot -24.6334 8.99832
ltoes 8.74468
431
root 6.54837 17.4029 5.79832 536.622 -27.5265 -172.942
lowerback 12.3749 4.39866 -8.70069
upperback 3.31933 4.11965 -3.07077
thorax -3.82629 1.87799 1.00961
lowerneck -0.229085 -18.2551 -15.0098
upperneck 7.61918 -30.8115 29.6787
head 9.84441 -15.1502 7.9847
rclavicle 1.66184e-013 5.40694e-014
rhumerus 36.244 -49.804 -72.9242
rradius 15.1462
rwrist -27.3641
rhand 8.75115 15.8877
rfingers 7.12502
rthumb 33.9409 -10.9092
lclavicle 1.66184e-013 5.40694e-014
lhumerus -32.5398 -0.1503 47.9026
lradius 33.4137
lwrist 2.49694
lhand -25.3002 13.9445
lfingers 7.12502
lthumb 1.22163 43.9207
rfemur -32.1791 -12.3412 19.8783
rtibia 79.2888
rfoot -11.9199 -24.0212
rtoes 10.9484
lfemur -30.0505 6.34979 -22.2854
ltibia 51.6329
lfoot -25.3902 9.72182
ltoes 11.7991
432
root 6.3194 17.448 5.83013 536.627 -26.655 -172.758
lowerback 12.0253 4.19173 -8.7921
upperback 3.28213 3.89681 -2.94418
thorax -3.66966 1.77255 1.2505
lowerneck -0.573571 -17.945 -14.9622
upperneck 8.41028 -30.5909 29.4101
head 10.0597 -14.9903 7.9264
rclavicle 5.96354e-014 -6.67916e-014
rhumerus 36.0598 -49.338 -73.3756
rradius 15.1694
rwrist -27.293
rhand 8.92311 16.415
rfingers 7.12502
rthumb 34.1042 -10.3456
lclavicle 5.96354e-014 -6.67916e-014
lhumerus -32.8187 -0.241059 47.5937
lradius 33.777
lwrist 2.85301
lhand -24.3832 12.7642
lfingers 7.12502
lthumb 2.10728 42.7335
rfemur -31.1311 -14.2263 21.0588
rtibia 80.1307
rfoot -11.8469 -22.2036
rtoes 7.78533
lfemur -29.3047 6.74031 -22.7162
ltibia 50.9193
lfoot -25.3591 10.4022
ltoes 11.2196
433
root 6.0849 17.4954 5.87133 536.762 -25.1486 -172.603
lowerback 11.6255 4.10813 -8.79747
upperback 3.23041 3.84954 -2.83827
thorax -3.50807 1.7523 1.39392
lowerneck -1.53605 -17.6271 -14.9142
upperneck 9.48042 -30.3077 28.9504
head 10.4338 -14.726 7.7555
rclavicle 2.94201e-014 -6.36111e-014
rhumerus 35.518 -48.1746 -73.1177
rradius 15.1049
rwrist -27.1385
rhand 9.77199 16.857
rfingers 7.12502
rthumb 34.91 -9.72
lclavicle 2.94201e-014 -6.36111e-014
lhumerus -33.174 -0.0279842 47.2801
lradius 34.1849
lwrist 3.25312
lhand -25.4204 13.2644
lfingers 7.12502
lthumb 1.1055 43.2413
rfemur -30.3249 -15.446 22.1739
rtibia 80.7231
rfoot -11.1185 -19.5233
rtoes 3.74653
lfemur -28.7417 7.56741 -23.1299
ltibia 50.1824
lfoot -25.4629 10.7371
ltoes 11.7594
434
root 5.85156 17.5313 5.91125 536.815 -23.2992 -172.346
lowerback 11.2215 4.09069 -8.71191
upperback 3.17046 3.90481 -2.68472
thorax -3.35924 1.78422 1.5202
lowerneck -2.17955 -17.3392 -14.776
upperneck 10.2351 -29.8988 28.3403
head 10.5614 -14.4488 7.58781
rclavicle 3.73715e-014 5.40694e-014
rhumerus 35.8284 -47.4258 -73.7185
rradius 14.8213
rwrist -26.9571
rhand 8.92783 17.3411
rfingers 7.12502
rthumb 34.1087 -9.41843
lclavicle 3.73715e-014 5.40694e-014
lhumerus -33.7382 0.234257 47.0818
lradius 34.6587
lwrist 3.68475
lhand -26.7857 13.4176
lfingers 7.12502
lthumb -0.213156 43.3973
rfemur -29.4857 -16.2878 23.3412
rtibia 81.1501
rfoot -10.3543 -16.9765
rtoes -2.75971
lfemur -28.0646 8.67552 -23.3977
ltibia 49.3436
lfoot -25.9954 10.3478
ltoes 15.7542
435
root 5.62387 17.5555 5.95018 536.949 -21.3936 -172.2
lowerback 10.8582 4.13462 -8.75696
upperback 3.09616 4.012 -2.58072
thorax -3.25776 1.8414 1.65559
lowerneck -2.15806 -17.1319 -15.0429
upperneck 10.3552 -29.7371 28.4889
head 10.638 -14.3941 7.72124
rclavicle -4.05521e-014 7.95139e-014
rhumerus 41.8732 -51.3345 -81.1638
rradius 13.3169
rwrist -20.5025
rhand 9.26019 18.2544
rfingers 7.12502
rthumb 34.4243 -8.43419
lclavicle -4.05521e-014 7.95139e-014
lhumerus -34.247 0.453678 46.8503
lradius 35.0555
lwrist 4.09894
lhand -27.4103 13.6446
lfingers 7.12502
lthumb -0.816386 43.6228
rfemur -28.5761 -17.0591 24.3581
rtibia 81.356
rfoot -9.48519 -14.5424
rtoes -10.3163
lfemur -27.4955 10.0505 -23.8336
ltibia 48.5365
lfoot -26.2535 10.122
ltoes 19.4509
